<svg xmlns="http://www.w3.org/2000/svg" width="702.821" height="332.018" viewBox="0 0 702.821 332.018">
  <g id="组_1" data-name="组 1" transform="translate(139.821 -398)">
    <g id="icons8_energy_meter" transform="translate(18.059 533.674)">
      <path id="路径_6" data-name="路径 6" d="M136.455,120.862l-122.4-4.114a11.528,11.528,0,0,1-5.061-1.26,8.35,8.35,0,0,1-3.271-3.059,8.848,8.848,0,0,1-1.23-4.375,12.856,12.856,0,0,1,1.048-5.224L41.069,16.591a15.991,15.991,0,0,1,2.851-4.456,21.9,21.9,0,0,1,4.28-3.69,23.2,23.2,0,0,1,5.153-2.567A18.919,18.919,0,0,1,58.836,4.8L172.094.571a16.081,16.081,0,0,1,5.64.729,10.615,10.615,0,0,1,4.124,2.425A8.024,8.024,0,0,1,184.064,7.5a9.1,9.1,0,0,1-.134,4.761l-26.621,94.333a16.837,16.837,0,0,1-2.931,5.686,21.764,21.764,0,0,1-4.923,4.6,23.389,23.389,0,0,1-6.215,3.022A20.524,20.524,0,0,1,136.455,120.862Z" fill="#455a64"/>
      <path id="路径_7" data-name="路径 7" d="M10.329,0,24.676.173,14.586,27.27,0,26.844ZM31.947.26,46.689.438,36.98,27.923l-15-.438ZM54.162.528,69.317.71l-9.3,27.885-15.428-.45ZM77,.8,92.585.99l-8.871,28.3-15.877-.463Z" transform="translate(34.645 83.6)" fill="#fdd835"/>
      <path id="路径_8" data-name="路径 8" d="M6.213.082A4.579,4.579,0,0,0,4.7.316a5.834,5.834,0,0,0-2.611,1.76A4.624,4.624,0,0,0,1.3,3.392a3.156,3.156,0,0,0-.222,1.333A2.258,2.258,0,0,0,1.443,5.83a2.236,2.236,0,0,0,.874.764A3.1,3.1,0,0,0,3.631,6.9,4.567,4.567,0,0,0,5.15,6.67a5.733,5.733,0,0,0,1.436-.7A5.751,5.751,0,0,0,7.778,4.9a4.606,4.606,0,0,0,.787-1.325,3.135,3.135,0,0,0,.213-1.336A2.2,2.2,0,0,0,7.524.381,3.118,3.118,0,0,0,6.213.082Zm22.045.5a4.71,4.71,0,0,0-1.546.237,5.759,5.759,0,0,0-1.448.71A5.682,5.682,0,0,0,24.071,2.6a4.535,4.535,0,0,0-.779,1.335,3.132,3.132,0,0,0-.2,1.352,2.321,2.321,0,0,0,.4,1.122,2.37,2.37,0,0,0,.917.775,3.269,3.269,0,0,0,1.356.312,4.7,4.7,0,0,0,1.556-.234,5.757,5.757,0,0,0,1.459-.714,5.678,5.678,0,0,0,1.2-1.084,4.517,4.517,0,0,0,.777-1.344,3.112,3.112,0,0,0,.186-1.355,2.314,2.314,0,0,0-.41-1.117,2.379,2.379,0,0,0-.923-.766A3.288,3.288,0,0,0,28.258.581Zm22.667.513a4.846,4.846,0,0,0-1.583.24,5.783,5.783,0,0,0-1.471.72,5.608,5.608,0,0,0-1.2,1.09A4.446,4.446,0,0,0,45.9,4.5a3.112,3.112,0,0,0-.168,1.372,2.392,2.392,0,0,0,.438,1.138,2.516,2.516,0,0,0,.961.787,3.45,3.45,0,0,0,1.4.317,4.835,4.835,0,0,0,1.593-.237,5.782,5.782,0,0,0,1.482-.724,5.6,5.6,0,0,0,1.206-1.1,4.429,4.429,0,0,0,.765-1.363,3.093,3.093,0,0,0,.158-1.375,2.386,2.386,0,0,0-.449-1.134,2.526,2.526,0,0,0-.968-.778A3.469,3.469,0,0,0,50.924,1.094Zm23.315.528a4.989,4.989,0,0,0-1.622.243,5.808,5.808,0,0,0-1.494.73A5.533,5.533,0,0,0,69.917,3.7a4.359,4.359,0,0,0-.756,1.374,3.1,3.1,0,0,0-.139,1.393A2.471,2.471,0,0,0,69.5,7.623a2.673,2.673,0,0,0,1.008.8,3.644,3.644,0,0,0,1.449.323,4.979,4.979,0,0,0,1.633-.24A5.807,5.807,0,0,0,75.1,7.77a5.528,5.528,0,0,0,1.212-1.116,4.341,4.341,0,0,0,.753-1.383,3.079,3.079,0,0,0,.128-1.4,2.467,2.467,0,0,0-.49-1.151,2.685,2.685,0,0,0-1.014-.79A3.662,3.662,0,0,0,74.24,1.621Z" transform="translate(39.576 100.314)" fill="#ffb300"/>
      <path id="路径_9" data-name="路径 9" d="M150.652,42.3a14.646,14.646,0,0,0,2.571-1.292,13.451,13.451,0,0,0,2.166-1.7,11.116,11.116,0,0,0,1.644-2,8.5,8.5,0,0,0,1.007-2.192l8.382-28.977a4.589,4.589,0,0,0,.089-2.379,3.994,3.994,0,0,0-1.081-1.9A5.259,5.259,0,0,0,163.379.637,8.022,8.022,0,0,0,160.55.259L101.727,2.251,46.817,4.11a9.456,9.456,0,0,0-2.759.534,11.567,11.567,0,0,0-2.593,1.29,10.91,10.91,0,0,0-2.149,1.858,7.975,7.975,0,0,0-1.423,2.243l-10.9,26.849a6.923,6.923,0,0,0-.5,2.02,5.041,5.041,0,0,0,.167,1.827,4.319,4.319,0,0,0,.806,1.542,4.767,4.767,0,0,0,1.416,1.16,5.839,5.839,0,0,1,1.712,1.4,5.444,5.444,0,0,1,1.017,1.9,6.365,6.365,0,0,1,.239,2.306,8.777,8.777,0,0,1-.621,2.6,12.212,12.212,0,0,1-1.455,2.62,15.535,15.535,0,0,1-2.1,2.347A17.664,17.664,0,0,1,25.1,58.57a17.431,17.431,0,0,1-2.887,1.455A14.462,14.462,0,0,0,17.7,62.85,12.817,12.817,0,0,0,16,64.764a10.268,10.268,0,0,0-1.187,2.123L2.727,96.645a6.4,6.4,0,0,0-.509,2.62,4.393,4.393,0,0,0,.634,2.178,4.177,4.177,0,0,0,1.649,1.51,5.817,5.817,0,0,0,2.531.612l7.1.207,6.62-16.8a9.128,9.128,0,0,1,1.567-2.558,11.737,11.737,0,0,1,5.137-3.451,9.062,9.062,0,0,1,2.951-.48l43.726.618,46.215.653a7.51,7.51,0,0,1,2.912.594,5.509,5.509,0,0,1,2.074,1.541,4.9,4.9,0,0,1,1.038,2.263,5.9,5.9,0,0,1-.2,2.754l-5.451,17.978,8.172.238a10.306,10.306,0,0,0,3.373-.484,11.67,11.67,0,0,0,3.082-1.5,10.867,10.867,0,0,0,2.447-2.281,8.47,8.47,0,0,0,1.472-2.826l9.371-32.4a7.052,7.052,0,0,0,.286-2.31,5.79,5.79,0,0,0-1.679-3.835,6.837,6.837,0,0,0-1.844-1.317A8.246,8.246,0,0,1,143.19,58.6a6.92,6.92,0,0,1-2.032-4.61,8.357,8.357,0,0,1,.364-2.8,10.934,10.934,0,0,1,1.309-2.79,14,14,0,0,1,2.07-2.485,16.718,16.718,0,0,1,2.662-2.071A17.8,17.8,0,0,1,150.652,42.3Z" transform="translate(9.753 6.357)" fill="#272727"/>
      <path id="路径_14" data-name="路径 14" d="M5.9.827a2.937,2.937,0,0,1,1.221.234,1.95,1.95,0,0,1,.812.654,1.885,1.885,0,0,1,.333.977,2.759,2.759,0,0,1-.217,1.2A4.335,4.335,0,0,1,7.295,5.1a5.659,5.659,0,0,1-1.129.989,5.744,5.744,0,0,1-1.352.669A4.524,4.524,0,0,1,3.392,7a2.919,2.919,0,0,1-1.222-.241A1.941,1.941,0,0,1,1.363,6.1a1.893,1.893,0,0,1-.324-.981,2.779,2.779,0,0,1,.225-1.2,4.354,4.354,0,0,1,.755-1.2,5.664,5.664,0,0,1,1.123-.981,5.745,5.745,0,0,1,1.343-.665A4.536,4.536,0,0,1,5.9.827ZM133.093,3.378a2.657,2.657,0,0,0-.068,1.3,2.285,2.285,0,0,0,.542,1.063,2.78,2.78,0,0,0,1.057.717,3.991,3.991,0,0,0,1.477.261,5.341,5.341,0,0,0,1.633-.268,5.888,5.888,0,0,0,1.481-.725,5.223,5.223,0,0,0,1.166-1.072,3.823,3.823,0,0,0,.689-1.308,2.644,2.644,0,0,0,.058-1.3,2.286,2.286,0,0,0-.553-1.058,2.8,2.8,0,0,0-1.063-.708,4.012,4.012,0,0,0-1.474-.253A5.35,5.35,0,0,0,136.415.3a5.889,5.889,0,0,0-1.47.72,5.23,5.23,0,0,0-1.16,1.063A3.84,3.84,0,0,0,133.093,3.378Z" transform="translate(26.086 54.136)" fill="#90a4ae"/>
      <g id="组件_1_2" data-name="组件 1 – 2" transform="translate(78.902 14.945)">
        <g id="路径_15" data-name="路径 15" transform="translate(0)" fill="none">
          <path d="M17.584,2.824a11.206,11.206,0,0,0-1.422.209,15.759,15.759,0,0,0-3.333,1.075A13.293,13.293,0,0,0,8.966,6.727a12.483,12.483,0,0,0-3.035,4.866,7.633,7.633,0,0,0-.376,4.819A4.409,4.409,0,0,0,7.568,18.89a7.534,7.534,0,0,0,2.574.905,8.057,8.057,0,0,0,1.273.123l24.194-.44a11.17,11.17,0,0,0,1.441-.2,15.952,15.952,0,0,0,3.4-1.076,13.627,13.627,0,0,0,3.969-2.659,12.652,12.652,0,0,0,3.114-4.923,7.088,7.088,0,0,0,.285-4.842A4.82,4.82,0,0,0,45.6,3.261,8.854,8.854,0,0,0,42.839,2.3a9.348,9.348,0,0,0-1.349-.157Z" stroke="none"/>
          <path d="M 35.01530075073242 21.35249900817871 L 34.97403717041016 21.35320472717285 L 10.74903202056885 21.76660537719727 L 10.73485851287842 21.76684188842773 L 10.72080135345459 21.76691246032715 C 10.65212154388428 21.76729774475098 10.44635581970215 21.76620101928711 10.14376068115234 21.74466514587402 C 9.841266632080078 21.72314071655273 9.442157745361328 21.68120574951172 8.986639022827148 21.59996604919434 C 8.531437873840332 21.5188045501709 8.020118713378906 21.3984432220459 7.492866992950439 21.22006225585938 C 6.96618127822876 21.04186058044434 6.423787593841553 20.80585670471191 5.905714511871338 20.49332046508789 C 5.415446281433105 20.1975269317627 4.925962448120117 19.81946182250977 4.496114253997803 19.33773231506348 C 4.066999912261963 18.85676193237305 3.697374820709229 18.27258682250977 3.445709943771362 17.56393623352051 C 3.194473505020142 16.8566722869873 3.060808897018433 16.02555465698242 3.102651357650757 15.04949378967285 C 3.144402027130127 14.0755615234375 3.360888242721558 12.95754909515381 3.809529542922974 11.6744213104248 C 4.003654479980469 11.11921977996826 4.226034164428711 10.58132839202881 4.476133346557617 10.06151390075684 C 4.726016044616699 9.542125701904297 5.003667831420898 9.040708541870117 5.308426856994629 8.558025360107422 C 5.612967967987061 8.075715065002441 5.944768905639648 7.612009048461914 6.303154468536377 7.167703151702881 C 6.661368370056152 6.723631858825684 7.046252250671387 6.298884391784668 7.457345485687256 5.894206523895264 C 7.798095703125 5.558815002441406 8.155372619628906 5.238265514373779 8.528567314147949 4.9330153465271 C 8.901650428771973 4.627818584442139 9.290715217590332 4.337879657745361 9.695013046264648 4.063647747039795 C 10.09929370880127 3.789430141448975 10.5188512802124 3.530870676040649 10.95302581787109 3.28844952583313 C 11.38726139068604 3.045984983444214 11.836106300354 2.819674968719482 12.2989673614502 2.609890699386597 C 13.05194187164307 2.268641710281372 13.77622890472412 2.001113653182983 14.44357872009277 1.791497230529785 C 15.11124134063721 1.581772685050964 15.72203350067139 1.429979085922241 16.24768447875977 1.320299744606018 C 16.7735595703125 1.210559368133545 17.21414756774902 1.143000841140747 17.5408935546875 1.101824045181274 C 17.8678035736084 1.060633897781372 18.08079719543457 1.045835256576538 18.15133666992188 1.04162335395813 L 18.18999099731445 1.039339065551758 L 18.2282600402832 1.038209438323975 L 42.10397338867188 0.3302849233150482 L 42.16835021972656 0.3283660113811493 L 42.23147964477539 0.3295943439006805 C 42.30214309692383 0.3309853672981262 42.51390838623047 0.3373115956783295 42.82614135742188 0.365498960018158 C 43.13846588134766 0.3937140107154846 43.55139541625977 0.4438202381134033 44.02417755126953 0.5328037738800049 C 44.49729537963867 0.6218732595443726 45.03047561645508 0.7499114871025085 45.58285903930664 0.9339945316314697 C 46.1359748840332 1.118253827095032 46.70846939086914 1.358753561973572 47.2595100402832 1.672640562057495 C 47.59921646118164 1.86616575717926 47.91261672973633 2.077229261398315 48.19902801513672 2.305353164672852 C 48.48581314086914 2.533662796020508 48.74564361572266 2.779093503952026 48.9781608581543 3.041225910186768 C 49.21088027954102 3.303574800491333 49.41625595092773 3.582627534866333 49.59383392333984 3.877974271774292 C 49.77150726318359 4.173568248748779 49.92134857177734 4.485487461090088 50.0428581237793 4.81324577331543 C 50.19065856933594 5.211889266967773 50.29549026489258 5.632342338562012 50.35744476318359 6.073787212371826 C 50.41937255859375 6.515703678131104 50.43832778930664 6.978664875030518 50.41420745849609 7.461833000183105 C 50.39005279541016 7.945522308349609 50.32273101806641 8.449467658996582 50.21225357055664 8.972833633422852 C 50.10152435302734 9.49674129486084 49.94762420654297 10.04008483886719 49.75051116943359 10.60204410552979 C 49.29611587524414 11.8970422744751 48.71073913574219 13.03666877746582 48.04187774658203 14.03822422027588 C 47.37205123901367 15.04117584228516 46.61902618408203 15.90488624572754 45.83039093017578 16.64740562438965 C 45.04120254516602 17.39042091369629 44.21688842773438 18.01161956787109 43.40488815307617 18.52958488464355 C 42.59282684326172 19.0476016998291 41.79350280761719 19.46210861206055 41.05413818359375 19.79202079772949 C 40.2788200378418 20.13796043395996 39.53392791748047 20.40754699707031 38.84828948974609 20.61752128601074 C 38.16291809082031 20.82738304138184 37.53689956665039 20.9776668548584 36.99896621704102 21.08512496948242 C 36.46121215820312 21.1925106048584 36.01157379150391 21.25712776184082 35.67839431762695 21.29576301574707 C 35.34535598754883 21.33438491821289 35.128662109375 21.3470458984375 35.05693435668945 21.3504810333252 L 35.01530075073242 21.35249900817871 Z M 12.11335945129395 18.0759220123291 L 36.17715072631836 17.61114120483398 C 36.24026489257812 17.60592079162598 36.39381790161133 17.59143829345703 36.61797714233398 17.55905914306641 C 36.84221267700195 17.52664184570312 37.13708114624023 17.47630882263184 37.48282241821289 17.39939117431641 C 37.82865142822266 17.32243537902832 38.22529220581055 17.21891212463379 38.65293502807617 17.08010101318359 C 39.08066558837891 16.94124031066895 39.53934478759766 16.76711845397949 40.00914764404297 16.5490779876709 C 40.64907455444336 16.2520580291748 41.24121856689453 15.90458297729492 41.78469848632812 15.50761604309082 C 42.32804489135742 15.11074733734131 42.82261657714844 14.66454124450684 43.26736450195312 14.17001247406006 C 43.7119255065918 13.67573738098145 44.10670852661133 13.13334465026855 44.45086288452148 12.54390716552734 C 44.79471206665039 11.95502090454102 45.0879020690918 11.31932544708252 45.32965850830078 10.63798046112061 C 45.56955718994141 9.961982727050781 45.72177124023438 9.334542274475098 45.78662490844727 8.756410598754883 C 45.85146331787109 8.17896556854248 45.82918548583984 7.65070915222168 45.72011566162109 7.172345638275146 C 45.6112060546875 6.694604873657227 45.41574096679688 6.266676902770996 45.1341438293457 5.889276504516602 C 44.85282516479492 5.512329578399658 44.48556137084961 5.185812473297119 44.03255844116211 4.910434246063232 C 43.70263290405273 4.7098388671875 43.3531494140625 4.551245212554932 43.00985717773438 4.425937175750732 C 42.66684722900391 4.300704479217529 42.32999801635742 4.208674907684326 42.02495193481445 4.141132354736328 C 41.71998596191406 4.073640823364258 41.44688415527344 4.03056812286377 41.23116683959961 4.003296852111816 C 41.01543807983398 3.976035356521606 40.85709381103516 3.964484691619873 40.78168106079102 3.96003270149231 L 16.99916839599609 4.613742828369141 C 16.9382381439209 4.61910343170166 16.78666305541992 4.634215354919434 16.56473731994629 4.667352199554443 C 16.3428897857666 4.700482368469238 16.05074691772461 4.751686573028564 15.70854759216309 4.829317569732666 C 15.36641311645508 4.906915664672852 14.97425270080566 5.010941028594971 14.55225372314453 5.149755477905273 C 14.13040924072266 5.288539409637451 13.67864894866943 5.462122440338135 13.2171049118042 5.678899765014648 C 12.59445285797119 5.971373558044434 12.01919651031494 6.312955856323242 11.49217319488525 6.702871322631836 C 10.96503353118896 7.092870235443115 10.48584747314453 7.531415462493896 10.05532073974609 8.017746925354004 C 9.624553680419922 8.50432300567627 9.24232292175293 9.038935661315918 8.909246444702148 9.620917320251465 C 8.575898170471191 10.20341205596924 8.29179573059082 10.83359241485596 8.057605743408203 11.51077461242676 C 7.821731567382812 12.19297027587891 7.666823863983154 12.82483291625977 7.592971324920654 13.40535545349121 C 7.518969535827637 13.98660564422607 7.52628231048584 14.51640319824219 7.614758968353271 14.99379253387451 C 7.703371524810791 15.47175693511963 7.873340606689453 15.89720344543457 8.124738693237305 16.26916122436523 C 8.376431465148926 16.64154243469238 8.709675788879395 16.96032524108887 9.124508857727051 17.22453498840332 C 9.436412811279297 17.42322158813477 9.76954174041748 17.57559967041016 10.09615707397461 17.69242477416992 C 10.4230260848999 17.80933380126953 10.74337291717529 17.89064788818359 11.0294885635376 17.94722557067871 C 11.31571578979492 18.00381851196289 11.56768035888672 18.03559494018555 11.75755214691162 18.05340957641602 C 11.94744682312012 18.07125663757324 12.07529258728027 18.07514762878418 12.11335945129395 18.0759220123291 Z" stroke="none" fill="#f3da37"/>
        </g>
        <g id="路径_16" data-name="路径 16" transform="translate(14.743 9.022)" fill="#f3da37">
          <path d="M3.705.057a2.2,2.2,0,0,1,.841.131,1.42,1.42,0,0,1,.583.4A1.2,1.2,0,0,1,5.4,1.2a1.581,1.581,0,0,1-.09.758,2.5,2.5,0,0,1-.453.767,3.461,3.461,0,0,1-.718.635,3.777,3.777,0,0,1-.885.437A3.213,3.213,0,0,1,2.3,3.97a2.193,2.193,0,0,1-.842-.134,1.414,1.414,0,0,1-.581-.4,1.2,1.2,0,0,1-.269-.611A1.588,1.588,0,0,1,.7,2.064,2.51,2.51,0,0,1,1.159,1.3,3.464,3.464,0,0,1,1.874.668,3.777,3.777,0,0,1,2.755.232,3.218,3.218,0,0,1,3.705.057Z" stroke="none"/>
          <path d="M 2.565444946289062 3.24026894569397 C 2.765149354934692 3.235714435577393 2.96794319152832 3.196833372116089 3.163593053817749 3.130455493927002 C 3.359262228012085 3.0640709400177 3.54775857925415 2.970193862915039 3.718851804733276 2.85566782951355 C 3.889937400817871 2.741146326065063 4.043598175048828 2.605993509292603 4.169611930847168 2.457059383392334 C 4.295603275299072 2.308151483535767 4.393942356109619 2.145487070083618 4.454423427581787 1.975916862487793 C 4.514885902404785 1.806398987770081 4.531872749328613 1.645796060562134 4.510867595672607 1.500564813613892 C 4.489869117736816 1.355385303497314 4.430906295776367 1.225570201873779 4.339456558227539 1.117558240890503 C 4.248040199279785 1.00958526134491 4.12415885925293 0.9233980178833008 3.973279476165771 0.8654224872589111 C 3.822448253631592 0.8074654936790466 3.644626617431641 0.7776983976364136 3.445260524749756 0.7825421690940857 C 3.245943069458008 0.7873846888542175 3.043644905090332 0.826370894908905 2.848527908325195 0.8926833868026733 C 2.653429269790649 0.958989143371582 2.465482711791992 1.052625417709351 2.294849872589111 1.166787981987 C 2.124210119247437 1.28095531463623 1.970862507820129 1.415666222572327 1.844979286193848 1.564123511314392 C 1.719073891639709 1.712607145309448 1.620625972747803 1.8748619556427 1.55982506275177 2.044090509414673 C 1.499005556106567 2.213371753692627 1.481520295143127 2.373864650726318 1.501966118812561 2.519115209579468 C 1.522419095039368 2.664417505264282 1.580830931663513 2.794470310211182 1.671794295310974 2.902801990509033 C 1.762790441513062 3.011172771453857 1.88636040687561 3.097805023193359 2.037083625793457 3.156213521957397 C 2.18785572052002 3.214640855789185 2.365789413452148 3.244822263717651 2.565444946289062 3.24026894569397 M 2.304193735122681 3.970064163208008 C 1.985665559768677 3.977187871932983 1.702020525932312 3.929050207138062 1.461851716041565 3.835938930511475 C 1.221807241439819 3.742876291275024 1.025216579437256 3.604894161224365 0.8806228041648865 3.4322669506073 C 0.7361123561859131 3.259739637374878 0.6435419321060181 3.052611351013184 0.6114211082458496 2.821124315261841 C 0.5793187618255615 2.589768171310425 0.6075961589813232 2.334070682525635 0.7047531008720398 2.064229488372803 C 0.801862359046936 1.794520258903503 0.9586094617843628 1.536165952682495 1.158901214599609 1.299878835678101 C 1.359136700630188 1.063658475875854 1.602934598922729 0.8494429588317871 1.874245405197144 0.6679470539093018 C 2.145538330078125 0.4864634573459625 2.444400072097778 0.3376551270484924 2.754806280136108 0.2322543412446976 C 3.065261363983154 0.1268370449542999 3.387334108352661 0.06481684744358063 3.705003976821899 0.05695925652980804 C 4.02279806137085 0.04909862205386162 4.306157112121582 0.09618440270423889 4.546475410461426 0.1881035566329956 C 4.786917209625244 0.2800701558589935 4.984295845031738 0.4169251322746277 5.129955291748047 0.588543176651001 C 5.275699138641357 0.760260283946991 5.369667053222656 0.9667851328849792 5.40316915512085 1.197960376739502 C 5.436689853668213 1.429267048835754 5.409675121307373 1.685242533683777 5.313424587249756 1.955685377120972 C 5.217126846313477 2.226261138916016 5.060658931732178 2.485656261444092 4.860150337219238 2.723020315170288 C 4.659584522247314 2.960450887680054 4.414994716644287 3.175787210464478 4.142552375793457 3.358180046081543 C 3.870091676712036 3.540586233139038 3.569836378097534 3.690004110336304 3.257982015609741 3.795602798461914 C 2.946176052093506 3.901184558868408 2.622846841812134 3.96293830871582 2.304193735122681 3.970064163208008 Z" stroke="none" fill="#f3da37"/>
        </g>
        <g id="路径_17" data-name="路径 17" transform="translate(33.004 8.569)" fill="#f3da37">
          <path d="M3.707.058A2.3,2.3,0,0,1,4.57.191a1.494,1.494,0,0,1,.605.4,1.231,1.231,0,0,1,.292.616,1.57,1.57,0,0,1-.076.766,2.456,2.456,0,0,1-.448.776,3.422,3.422,0,0,1-.721.642,3.79,3.79,0,0,1-.9.442,3.287,3.287,0,0,1-.972.177,2.29,2.29,0,0,1-.865-.135,1.488,1.488,0,0,1-.6-.408A1.231,1.231,0,0,1,.6,2.853a1.576,1.576,0,0,1,.08-.765,2.464,2.464,0,0,1,.449-.773A3.425,3.425,0,0,1,1.847.676,3.79,3.79,0,0,1,2.738.236,3.292,3.292,0,0,1,3.707.058Z" stroke="none"/>
          <path d="M 2.607957124710083 3.275907278060913 C 2.812155485153198 3.271250247955322 3.018793106079102 3.231898069381714 3.217544794082642 3.164756536483765 C 3.416316509246826 3.097608327865601 3.60717248916626 3.00267481803894 3.779790878295898 2.886876106262207 C 3.952401399612427 2.771081924438477 4.106752395629883 2.634440183639526 4.23253059387207 2.483877658843994 C 4.358286380767822 2.3333420753479 4.455463409423828 2.168910503387451 4.513767242431641 1.997510671615601 C 4.572052955627441 1.8261638879776 4.586050987243652 1.663840293884277 4.561506271362305 1.517063856124878 C 4.536970615386963 1.37034022808075 4.473921298980713 1.239156484603882 4.378097057342529 1.130017995834351 C 4.282308578491211 1.020919442176819 4.153768062591553 0.9338486790657043 3.998203039169312 0.8752982020378113 C 3.842688083648682 0.8167668581008911 3.660156965255737 0.7867335677146912 3.456314325332642 0.7916859984397888 C 3.252522230148315 0.7966372966766357 3.046399593353271 0.8360967636108398 2.848197460174561 0.9031712412834167 C 2.650014400482178 0.9702388644218445 2.45972204208374 1.064926266670227 2.287572383880615 1.180353403091431 C 2.115415573120117 1.295785546302795 1.961378931999207 1.431975364685059 1.835725665092468 1.582050561904907 C 1.710049748420715 1.732152462005615 1.612750887870789 1.896165251731873 1.554109334945679 2.067216634750366 C 1.495449304580688 2.23832106590271 1.480933308601379 2.400532245635986 1.504899382591248 2.54732871055603 C 1.528873682022095 2.694178104400635 1.591358304023743 2.825605154037476 1.686685800552368 2.935070276260376 C 1.782048344612122 3.044575452804565 1.910276412963867 3.132101058959961 2.065689086914062 3.191094160079956 C 2.221152544021606 3.250106334686279 2.403809070587158 3.280563116073608 2.607957124710083 3.275907278060913 M 2.356038808822632 4.013593196868896 C 2.030338525772095 4.020877361297607 1.739164113998413 3.972298622131348 1.491521716117859 3.878252983093262 C 1.244008779525757 3.784256458282471 1.040005922317505 3.644849061965942 0.8884672522544861 3.470412731170654 C 0.7370172142982483 3.296078205108643 0.6379737257957458 3.0867600440979 0.6002563238143921 2.852807521820068 C 0.5625609159469604 2.618989229202271 0.5861195921897888 2.360554218292236 0.6798407435417175 2.087807416915894 C 0.7735153436660767 1.815195441246033 0.9284335970878601 1.554044246673584 1.128357768058777 1.315183758735657 C 1.328225135803223 1.076391577720642 1.573115587234497 0.8598266839981079 1.846836924552917 0.6763220429420471 C 2.120539903640747 0.492829829454422 2.423130989074707 0.3423525989055634 2.738443374633789 0.2357409596443176 C 3.053806066513062 0.1291124522686005 3.381966352462769 0.06633888930082321 3.706762790679932 0.05830502137541771 C 4.03168773651123 0.0502680167555809 4.322543621063232 0.09777207672595978 4.570315361022949 0.1905995160341263 C 4.818216323852539 0.2834754288196564 5.023010730743408 0.4217309057712555 5.175629615783691 0.5951356887817383 C 5.328338623046875 0.7686418294906616 5.42881441116333 0.9773430824279785 5.467953681945801 1.210976362228394 C 5.507115840911865 1.444743871688843 5.484869480133057 1.703462243080139 5.392097949981689 1.976823806762695 C 5.299281597137451 2.250321388244629 5.144674301147461 2.51253604888916 4.9445481300354 2.752496719360352 C 4.744365215301514 2.992526054382324 4.498679637908936 3.210236787796021 4.223806381225586 3.39465856552124 C 3.948915481567383 3.57909369468689 3.644895792007446 3.730194091796875 3.328089237213135 3.837008476257324 C 3.011332988739014 3.943805694580078 2.681867361068726 4.006306648254395 2.356038808822632 4.013593196868896 Z" stroke="none" fill="#f3da37"/>
        </g>
      </g>
    </g>
    <g id="icons8_steve_jumping_dino_1" transform="matrix(0.985, -0.174, 0.174, 0.985, -174.003, 417.755)">
      <path id="路径_20" data-name="路径 20" d="M272.969,68.993V28h-20.5V7.5H160.232V28H149.983V99.739h-20.5v20.5h-20.5v20.5H98.739v10.249h-20.5v10.249H47.5V150.983H37.246v-20.5h-20.5V99.739H6.5v71.742H27v20.5H37.246v20.5H47.5v10.249h20.5v10.249H78.242v51.244h20.5V273.969H88.491v-20.5H98.739V243.223h10.249V232.974h20.5v10.249h10.249v41h20.5V273.969H149.983V222.725h10.249v-20.5h20.5v-20.5h10.249v-41h20.5v10.249h10.249v-20.5H190.979V99.739h61.493V89.491h-41v-20.5Z" transform="translate(27.137 32.765)" fill="#b6dcfe"/>
      <path id="路径_21" data-name="路径 21" d="M164.857,293.967h-20.5a5.126,5.126,0,0,1-5.124-5.124V252.972H134.11a5.126,5.126,0,0,1-5.124-5.124v-5.124H118.737v5.124a5.126,5.126,0,0,1-5.124,5.124h-5.124V258.1a5.126,5.126,0,0,1-5.124,5.124H98.239v10.249h5.124a5.126,5.126,0,0,1,5.124,5.124v10.249a5.126,5.126,0,0,1-5.124,5.124h-20.5a5.126,5.126,0,0,1-5.124-5.124v-46.12H72.617a5.126,5.126,0,0,1-5.124-5.124v-5.124H52.12A5.126,5.126,0,0,1,47,227.35v-5.124H41.871a5.126,5.126,0,0,1-5.124-5.124V201.728H31.622A5.126,5.126,0,0,1,26.5,196.6V181.23H11.124A5.126,5.126,0,0,1,6,176.106V104.364a5.126,5.126,0,0,1,5.124-5.124H21.373a5.126,5.126,0,0,1,5.124,5.124v25.622H41.871A5.126,5.126,0,0,1,47,135.11v15.373H52.12a5.126,5.126,0,0,1,5.124,5.124v5.124h20.5v-5.124a5.126,5.126,0,0,1,5.124-5.124H98.239v-5.124a5.126,5.126,0,0,1,5.124-5.124h5.124V124.861a5.126,5.126,0,0,1,5.124-5.124h15.373V104.364a5.126,5.126,0,0,1,5.124-5.124h15.373V32.622a5.126,5.126,0,0,1,5.124-5.124h5.124V12.124A5.126,5.126,0,0,1,164.857,7H257.1a5.126,5.126,0,0,1,5.124,5.124V27.5h15.373a5.126,5.126,0,0,1,5.124,5.124v41a5.126,5.126,0,0,1-5.124,5.124H221.225V88.991H257.1a5.126,5.126,0,0,1,5.124,5.124v10.249a5.126,5.126,0,0,1-5.124,5.124H200.728v20.5H226.35a5.126,5.126,0,0,1,5.124,5.124v20.5a5.126,5.126,0,0,1-5.124,5.124H216.1a5.126,5.126,0,0,1-5.124-5.124v-5.124H200.728v35.871a5.126,5.126,0,0,1-5.124,5.124h-5.124v15.373a5.126,5.126,0,0,1-5.124,5.124H169.981V227.35a5.126,5.126,0,0,1-5.124,5.124h-5.124v41h5.124a5.126,5.126,0,0,1,5.124,5.124v10.249A5.126,5.126,0,0,1,164.857,293.967Zm-15.373-10.249h5.124a5.126,5.126,0,0,1-5.124-5.124Zm-61.493,0h5.124a5.126,5.126,0,0,1-5.124-5.124V258.1a5.126,5.126,0,0,1,5.124-5.124h5.124v-5.124a5.126,5.126,0,0,1,5.124-5.124h5.124V237.6a5.126,5.126,0,0,1,5.124-5.124h20.5a5.126,5.126,0,0,1,5.124,5.124v5.124h5.124a5.126,5.126,0,0,1,5.124,5.124v-20.5a5.126,5.126,0,0,1,5.124-5.124h5.124V206.852a5.126,5.126,0,0,1,5.124-5.124H180.23V186.354a5.126,5.126,0,0,1,5.124-5.124h5.124V145.359a5.126,5.126,0,0,1,5.124-5.124,5.126,5.126,0,0,1-5.124-5.124V104.364a5.126,5.126,0,0,1,5.124-5.124h20.5a5.126,5.126,0,0,1-5.124-5.124v-20.5a5.126,5.126,0,0,1,5.124-5.124h56.369V37.746H257.1a5.126,5.126,0,0,1-5.124-5.124V17.249H169.981V32.622a5.126,5.126,0,0,1-5.124,5.124h-5.124v66.617a5.126,5.126,0,0,1-5.124,5.124H139.235v15.373a5.126,5.126,0,0,1-5.124,5.124H118.737v15.373a5.126,5.126,0,0,1-5.124,5.124h-5.124v5.124a5.126,5.126,0,0,1-5.124,5.124H87.991v5.124a5.126,5.126,0,0,1-5.124,5.124H52.12A5.126,5.126,0,0,1,47,165.857v-5.124H41.871a5.126,5.126,0,0,1-5.124-5.124V140.235H21.373a5.126,5.126,0,0,1-5.124-5.124v35.871H31.622a5.126,5.126,0,0,1,5.124,5.124v15.373h5.124A5.126,5.126,0,0,1,47,196.6v15.373H52.12a5.126,5.126,0,0,1,5.124,5.124v5.124H72.617a5.126,5.126,0,0,1,5.124,5.124v5.124h5.124a5.126,5.126,0,0,1,5.124,5.124ZM221.225,150.483V140.235H216.1a5.126,5.126,0,0,1,5.124,5.124Z" transform="translate(22.513 28.141)" fill="#4788c7"/>
      <path id="路径_22" data-name="路径 22" d="M34.03,24.873H26.343A3.845,3.845,0,0,1,22.5,21.03V13.343A3.845,3.845,0,0,1,26.343,9.5H34.03a3.845,3.845,0,0,1,3.843,3.843V21.03A3.845,3.845,0,0,1,34.03,24.873Z" transform="translate(175.118 51.263)" fill="#fff"/>
    </g>
    <text id="dino:bit" transform="translate(173 514)" fill="#707070" font-size="102" font-family="LMRoman12-Bold, 'Latin Modern Roman \31 2'" font-weight="700"><tspan x="0" y="0">dino:bit</tspan></text>
    <text id="Made_with_by_TheUnknownTeam" data-name="Made with ❤ by 
TheUnknownTeam" transform="translate(218 584)" fill="#707070" font-size="36" font-family="Consolas"><tspan x="0" y="0">Made with</tspan><tspan y="0" font-family="LMRoman12-Regular, 'Latin Modern Roman \31 2'"> </tspan><tspan y="0" font-family="SegoeUIEmoji, Segoe UI Emoji">❤</tspan><tspan y="0" font-family="LMRoman12-Regular, 'Latin Modern Roman \31 2'"> </tspan><tspan y="0">by</tspan><tspan y="0" font-family="LMRoman12-Regular, 'Latin Modern Roman \31 2'"> </tspan><tspan font-family="Consolas-Bold, Consolas" font-weight="700"><tspan x="0" y="40">TheUnknownTeam</tspan></tspan></text>
  </g>
</svg>
